<svg version="1.1" id="Layer_1" xmlns="http://www.w3.org/2000/svg" xmlns:xlink="http://www.w3.org/1999/xlink" x="0px" y="0px"
	 width="100%" viewBox="0 0 720 722" enable-background="new 0 0 720 722" xml:space="preserve">
<path fill="#000000" opacity="1.000000" stroke="none" 
	d="
M721.000000,264.000000 
	C721.000000,417.333344 721.000000,570.166687 721.000000,723.000000 
	C481.000000,723.000000 241.000000,723.000000 1.000000,723.000000 
	C1.000000,482.333344 1.000000,241.666672 1.000000,1.000000 
	C241.000000,1.000000 481.000000,1.000000 721.000000,1.000000 
	C721.000000,88.500000 721.000000,176.000000 721.000000,264.000000 
M659.188965,446.471436 
	C665.649414,427.046692 665.638489,407.329834 662.061035,387.399567 
	C661.775208,385.806793 662.460632,383.656708 663.433044,382.291626 
	C666.564880,377.895355 670.345886,373.947784 673.335266,369.466125 
	C687.633911,348.029602 693.396179,324.350464 692.225891,298.657532 
	C691.606995,285.068573 689.214478,271.977325 683.941467,259.525360 
	C674.937927,238.264038 661.854980,220.557983 639.945435,210.812271 
	C638.685242,210.251755 637.474304,207.847839 637.541992,206.361130 
	C637.743591,201.935791 638.609131,197.541931 639.189819,193.132416 
	C642.492798,168.051056 635.146362,145.730499 620.699097,125.661835 
	C609.655884,110.321640 594.656311,99.657280 576.858276,93.341545 
	C566.285828,89.589844 555.221191,87.269524 543.947937,88.616241 
	C540.285156,89.053810 539.211914,87.931129 538.133057,85.185043 
	C531.065552,67.195290 519.938110,52.390099 503.330841,42.204769 
	C476.690552,25.866129 448.816101,21.993910 420.334229,36.665653 
	C393.540558,50.467758 379.466034,73.553658 379.311066,103.342888 
	C378.768311,207.671906 379.275360,312.006012 378.942993,416.336792 
	C378.881622,435.603882 382.415710,453.207306 394.237640,468.747711 
	C398.052521,473.762543 399.032959,479.606201 398.034454,485.759338 
	C395.762177,499.761993 393.460510,513.760071 391.111115,527.750061 
	C388.086792,545.758972 383.466705,563.291199 375.296753,579.737427 
	C371.639465,587.099548 371.922180,588.358826 377.861206,594.467102 
	C403.156555,620.483398 425.098358,648.962952 441.326263,681.577332 
	C444.577515,688.111572 447.098816,695.023193 450.587646,701.416443 
	C451.658020,703.377747 454.829315,704.192505 457.038544,705.532227 
	C457.775635,704.068604 459.153198,702.606079 459.155609,701.141235 
	C459.208893,668.979248 459.050262,636.816772 459.119720,604.654846 
	C459.127838,600.904846 458.164246,598.702637 454.711151,596.806763 
	C448.465851,593.378052 445.443390,585.114014 447.343903,578.654053 
	C449.350220,571.834473 456.564667,566.183594 463.386597,566.088196 
	C471.291870,565.977600 478.067932,570.869385 480.296844,578.295898 
	C482.236938,584.760132 478.477844,594.207947 471.670776,597.620667 
	C468.540466,599.190063 468.206696,600.959900 468.210907,603.760132 
	C468.253662,632.259644 468.236755,660.759277 468.235992,689.258850 
	C468.235870,693.258789 468.132812,697.261902 468.258942,701.257812 
	C468.386505,705.298340 470.625702,706.723389 474.154175,704.794373 
	C475.620148,703.992859 476.842987,702.336609 477.643707,700.792786 
	C484.557800,687.461304 490.808838,673.752136 498.343506,660.786682 
	C504.839722,649.608276 512.180725,638.800476 520.195557,628.656433 
	C529.510254,616.867310 539.993835,606.004150 549.916809,594.692322 
	C556.413818,587.285889 555.752808,587.206604 552.187561,578.119080 
	C546.685486,564.094482 542.114990,549.700073 537.373108,535.388306 
	C536.893860,533.942017 537.586426,531.794922 538.371216,530.308960 
	C539.899170,527.415771 542.009644,524.836548 543.648315,521.994324 
	C552.211975,507.141418 551.431702,493.789886 537.281067,481.676331 
	C534.639526,479.415039 532.078674,476.958344 529.949341,474.226440 
	C527.498779,471.082397 528.045288,467.948120 530.767029,464.854584 
	C533.403992,461.857330 536.312073,461.109680 539.535217,463.110291 
	C555.991211,473.324799 566.996216,486.853851 566.402405,507.507172 
	C566.360535,508.963989 568.260559,511.336182 569.717712,511.783295 
	C572.154175,512.530884 575.101013,512.632568 577.590698,512.020447 
	C591.283142,508.654327 605.139771,505.817871 617.352539,498.026794 
	C626.905701,491.932373 636.161072,485.392822 642.483765,475.974457 
	C648.625427,466.825897 653.535522,456.850555 659.188965,446.471436 
M52.956734,438.601257 
	C56.037289,445.887085 58.810329,453.321747 62.251453,460.433105 
	C77.455238,491.852905 97.191772,520.222351 121.802895,544.922241 
	C132.793365,555.952332 144.804337,566.155457 157.306046,575.450989 
	C184.573425,595.725464 214.514435,611.048279 247.232925,620.681519 
	C277.785553,629.677124 308.775269,635.212830 340.814911,633.134827 
	C344.927338,632.868103 347.442535,630.789612 348.758179,627.467346 
	C349.759033,624.940002 349.989777,621.974182 349.990540,619.203308 
	C350.043518,427.876953 350.038605,236.550613 350.038177,45.224262 
	C350.038177,44.057655 350.137543,42.879356 350.009949,41.726505 
	C349.500824,37.126518 347.110199,33.722164 342.441040,33.309731 
	C337.021820,32.831043 331.485321,32.855263 326.065460,33.362930 
	C309.933197,34.874001 293.721619,36.039711 277.748718,38.623802 
	C257.658203,41.874027 238.466537,48.615456 219.619431,56.291679 
	C199.747849,64.385155 181.094482,74.810448 163.480392,86.877029 
	C146.397446,98.579742 130.427475,111.876289 116.706055,127.494286 
	C106.450539,139.167297 96.229347,150.986832 87.240395,163.628204 
	C74.660439,181.319672 64.423805,200.424225 56.063549,220.577057 
	C42.534866,253.188599 34.907051,287.161774 33.432510,322.244659 
	C32.673714,340.298370 34.073906,358.624817 36.410660,376.579132 
	C39.144241,397.582428 44.923424,418.054047 52.956734,438.601257 
M461.001648,695.034180 
	C461.090668,696.441101 461.179657,697.847961 461.268677,699.254883 
	C461.459778,699.244019 461.650879,699.233093 461.841980,699.222229 
	C461.841980,691.756470 461.841980,684.290710 461.841980,676.824951 
	C461.561798,676.822510 461.281586,676.820068 461.001404,676.817688 
	C461.001404,682.594971 461.001404,688.372253 461.001648,695.034180 
z"/>
<path fill="#01629A" opacity="1.000000" stroke="none" 
	d="
M659.087708,446.854858 
	C653.535522,456.850555 648.625427,466.825897 642.483765,475.974457 
	C636.161072,485.392822 626.905701,491.932373 617.352539,498.026794 
	C605.139771,505.817871 591.283142,508.654327 577.590698,512.020447 
	C575.101013,512.632568 572.154175,512.530884 569.717712,511.783295 
	C568.260559,511.336182 566.360535,508.963989 566.402405,507.507172 
	C566.996216,486.853851 555.991211,473.324799 539.535217,463.110291 
	C536.312073,461.109680 533.403992,461.857330 530.767029,464.854584 
	C528.045288,467.948120 527.498779,471.082397 529.949341,474.226440 
	C532.078674,476.958344 534.639526,479.415039 537.281067,481.676331 
	C551.431702,493.789886 552.211975,507.141418 543.648315,521.994324 
	C542.009644,524.836548 539.899170,527.415771 538.371216,530.308960 
	C537.586426,531.794922 536.893860,533.942017 537.373108,535.388306 
	C542.114990,549.700073 546.685486,564.094482 552.187561,578.119080 
	C555.752808,587.206604 556.413818,587.285889 549.916809,594.692322 
	C539.993835,606.004150 529.510254,616.867310 520.195557,628.656433 
	C512.180725,638.800476 504.839722,649.608276 498.343506,660.786682 
	C490.808838,673.752136 484.557800,687.461304 477.643707,700.792786 
	C476.842987,702.336609 475.620148,703.992859 474.154175,704.794373 
	C470.625702,706.723389 468.386505,705.298340 468.258942,701.257812 
	C468.132812,697.261902 468.235870,693.258789 468.235992,689.258850 
	C468.236755,660.759277 468.253662,632.259644 468.210907,603.760132 
	C468.206696,600.959900 468.540466,599.190063 471.670776,597.620667 
	C478.477844,594.207947 482.236938,584.760132 480.296844,578.295898 
	C478.067932,570.869385 471.291870,565.977600 463.386597,566.088196 
	C456.564667,566.183594 449.350220,571.834473 447.343903,578.654053 
	C445.443390,585.114014 448.465851,593.378052 454.711151,596.806763 
	C458.164246,598.702637 459.127838,600.904846 459.119720,604.654846 
	C459.050262,636.816772 459.208893,668.979248 459.155609,701.141235 
	C459.153198,702.606079 457.775635,704.068604 457.038544,705.532227 
	C454.829315,704.192505 451.658020,703.377747 450.587646,701.416443 
	C447.098816,695.023193 444.577515,688.111572 441.326263,681.577332 
	C425.098358,648.962952 403.156555,620.483398 377.861206,594.467102 
	C371.922180,588.358826 371.639465,587.099548 375.296753,579.737427 
	C383.466705,563.291199 388.086792,545.758972 391.111115,527.750061 
	C393.460510,513.760071 395.762177,499.761993 398.034454,485.759338 
	C399.032959,479.606201 398.052521,473.762543 394.237640,468.747711 
	C382.415710,453.207306 378.881622,435.603882 378.942993,416.336792 
	C379.275360,312.006012 378.768311,207.671906 379.311066,103.342888 
	C379.466034,73.553658 393.540558,50.467758 420.334229,36.665653 
	C448.816101,21.993910 476.690552,25.866129 503.330841,42.204769 
	C519.938110,52.390099 531.065552,67.195290 538.133057,85.185043 
	C539.211914,87.931129 540.285156,89.053810 543.947937,88.616241 
	C555.221191,87.269524 566.285828,89.589844 576.858276,93.341545 
	C594.656311,99.657280 609.655884,110.321640 620.699097,125.661835 
	C635.146362,145.730499 642.492798,168.051056 639.189819,193.132416 
	C638.609131,197.541931 637.743591,201.935791 637.541992,206.361130 
	C637.474304,207.847839 638.685242,210.251755 639.945435,210.812271 
	C661.854980,220.557983 674.937927,238.264038 683.941467,259.525360 
	C689.214478,271.977325 691.606995,285.068573 692.225891,298.657532 
	C693.396179,324.350464 687.633911,348.029602 673.335266,369.466125 
	C670.345886,373.947784 666.564880,377.895355 663.433044,382.291626 
	C662.460632,383.656708 661.775208,385.806793 662.061035,387.399567 
	C665.638489,407.329834 665.649414,427.046692 659.087708,446.854858 
M623.439453,280.249542 
	C628.857605,284.438385 635.721497,283.284851 637.785156,277.614227 
	C639.394836,273.191010 637.380005,269.399384 634.508545,266.198486 
	C626.646912,257.434998 617.336060,250.592972 606.453613,246.029587 
	C583.644348,236.464813 561.102112,238.456772 539.177673,248.626312 
	C526.702454,254.412842 515.903381,262.582977 507.002686,273.473846 
	C498.814362,283.493073 491.885132,294.085846 488.972290,306.619781 
	C486.789032,316.014252 486.390869,325.817017 485.075012,335.421173 
	C483.235199,348.849548 476.880005,359.806183 466.095490,367.916260 
	C460.865784,371.849060 454.711945,374.570068 449.577423,378.604431 
	C447.341431,380.361298 445.327454,384.164368 445.580261,386.812012 
	C445.816803,389.289093 448.798431,392.654938 451.276428,393.459351 
	C454.024445,394.351410 457.825165,393.390808 460.723267,392.176605 
	C470.458862,388.097748 478.649933,381.843628 485.917236,374.078735 
	C494.647858,364.750458 500.645844,354.085083 503.009766,341.660736 
	C504.518005,333.733917 504.220673,325.468353 505.661804,317.523102 
	C509.643402,295.572021 521.654602,278.938660 541.000427,268.000305 
	C558.888123,257.886383 577.796326,254.689819 597.784851,261.592712 
	C608.035522,265.132690 615.965149,271.710632 623.439453,280.249542 
M462.424652,199.985016 
	C462.561096,203.437088 462.266632,206.974350 462.928406,210.322586 
	C464.112366,216.312546 467.781464,218.898056 473.057770,218.193878 
	C477.477081,217.604065 480.036652,213.948517 480.279297,208.438248 
	C480.525848,202.839432 480.331207,197.082291 481.594757,191.690948 
	C487.377045,167.018799 502.982330,151.595566 527.377075,145.252747 
	C532.751648,143.855316 538.507874,143.982346 544.052246,143.162766 
	C548.353088,142.526978 551.321655,138.548019 551.081360,134.267960 
	C550.862183,130.364288 546.883301,126.188377 543.093994,126.057419 
	C533.945068,125.741226 524.806885,125.998024 516.200195,129.512329 
	C505.323151,133.953659 495.331177,139.532898 486.727295,148.050598 
	C480.084961,154.626434 474.310669,161.514984 469.823334,169.590179 
	C464.734711,178.747421 462.718597,188.689514 462.424652,199.985016 
M620.666992,405.122772 
	C616.400696,386.172058 605.811768,372.194366 588.468811,363.153351 
	C579.082947,358.260437 569.124756,357.212189 558.887756,357.167847 
	C553.717590,357.145447 548.539307,360.466553 547.419678,364.424713 
	C546.187683,368.780151 549.041992,371.570526 552.077454,373.487762 
	C554.117249,374.776154 557.133850,375.182709 559.628479,374.972931 
	C571.302551,373.991089 581.514038,377.210541 590.159424,385.046844 
	C598.859131,392.932434 602.360962,403.395935 604.092529,414.602600 
	C604.771851,418.998779 608.885925,423.881226 612.383728,424.051666 
	C616.526245,424.253540 620.944031,420.348053 621.534485,415.224731 
	C621.884399,412.188934 621.175720,409.031158 620.666992,405.122772 
z"/>
<path fill="#1B83C8" opacity="1.000000" stroke="none" 
	d="
M52.832542,438.228607 
	C44.923424,418.054047 39.144241,397.582428 36.410660,376.579132 
	C34.073906,358.624817 32.673714,340.298370 33.432510,322.244659 
	C34.907051,287.161774 42.534866,253.188599 56.063549,220.577057 
	C64.423805,200.424225 74.660439,181.319672 87.240395,163.628204 
	C96.229347,150.986832 106.450539,139.167297 116.706055,127.494286 
	C130.427475,111.876289 146.397446,98.579742 163.480392,86.877029 
	C181.094482,74.810448 199.747849,64.385155 219.619431,56.291679 
	C238.466537,48.615456 257.658203,41.874027 277.748718,38.623802 
	C293.721619,36.039711 309.933197,34.874001 326.065460,33.362930 
	C331.485321,32.855263 337.021820,32.831043 342.441040,33.309731 
	C347.110199,33.722164 349.500824,37.126518 350.009949,41.726505 
	C350.137543,42.879356 350.038177,44.057655 350.038177,45.224262 
	C350.038605,236.550613 350.043518,427.876953 349.990540,619.203308 
	C349.989777,621.974182 349.759033,624.940002 348.758179,627.467346 
	C347.442535,630.789612 344.927338,632.868103 340.814911,633.134827 
	C308.775269,635.212830 277.785553,629.677124 247.232925,620.681519 
	C214.514435,611.048279 184.573425,595.725464 157.306046,575.450989 
	C144.804337,566.155457 132.793365,555.952332 121.802895,544.922241 
	C97.191772,520.222351 77.455238,491.852905 62.251453,460.433105 
	C58.810329,453.321747 56.037289,445.887085 52.832542,438.228607 
M151.139587,346.145447 
	C149.503433,346.345154 147.868134,346.710632 146.231003,346.718994 
	C129.082031,346.806549 111.932793,346.846710 94.783585,346.879364 
	C84.342529,346.899231 73.901413,346.883026 62.254704,346.883026 
	C63.395580,356.706970 63.742481,365.998962 65.678726,374.947083 
	C68.898880,389.828491 72.712669,404.615936 77.050430,419.212921 
	C83.354904,440.428101 93.466232,459.933380 105.430901,478.506409 
	C107.117416,481.124451 108.841667,481.371552 111.669739,480.218597 
	C123.692688,475.317108 135.732117,470.430328 147.933395,466.000519 
	C156.817734,462.774963 165.964722,460.272858 175.154877,457.398071 
	C165.007874,420.833832 159.872147,383.704468 157.560089,345.441040 
	C155.366760,344.964325 153.174835,344.080353 150.979889,344.072784 
	C123.518150,343.978241 96.055977,344.007385 68.593918,344.020233 
	C67.200027,344.020905 65.806206,344.162323 64.412354,344.238220 
	C64.419563,344.488739 64.426765,344.739288 64.433975,344.989807 
	C66.228226,344.989807 68.022469,344.989838 69.816719,344.989838 
	C94.782234,344.989960 119.747856,344.956818 144.713074,345.043121 
	C147.131119,345.051483 149.546600,345.798950 151.139587,346.145447 
M189.067169,286.777283 
	C188.310181,297.081818 187.553177,307.386353 186.798782,317.655518 
	C232.188202,317.655518 276.538818,317.655518 320.682373,317.655518 
	C320.682373,286.268890 320.682373,255.313538 320.682373,224.070038 
	C281.631958,221.954010 242.994934,219.483627 204.228989,212.317810 
	C202.562988,218.451599 200.406479,224.846436 199.123215,231.411957 
	C195.583298,249.523331 192.408585,267.706085 189.067169,286.777283 
M303.813934,346.799347 
	C265.070740,346.799347 226.327560,346.799347 186.841415,346.799347 
	C188.867798,382.510803 193.197739,417.206421 203.488098,450.634430 
	C208.129181,450.079376 212.206482,449.627350 216.273926,449.099335 
	C236.734909,446.443054 257.152863,443.379059 277.667328,441.238251 
	C290.669434,439.881409 303.811737,439.829346 316.896393,439.330444 
	C319.817902,439.218994 321.181976,438.178589 321.108521,435.180328 
	C321.010712,431.187012 321.088379,427.189423 321.088409,423.193665 
	C321.088593,399.219055 321.045258,375.244293 321.136597,351.270020 
	C321.149506,347.881073 320.826721,345.975067 316.537292,346.633118 
	C312.694763,347.222626 308.689148,346.749146 303.813934,346.799347 
M154.738571,199.926407 
	C140.605759,194.537720 126.496384,189.084961 112.293457,183.887894 
	C111.213722,183.492798 108.806671,184.492737 108.139763,185.551620 
	C102.315186,194.799500 96.270851,203.959183 91.204292,213.623474 
	C81.569008,232.002365 74.234116,251.386215 69.655304,271.621979 
	C67.006172,283.329651 65.827499,295.372345 64.052513,307.274017 
	C63.550861,310.637756 63.280018,314.035919 62.863247,317.778076 
	C94.972458,317.778076 126.356857,317.778076 157.994492,317.778076 
	C158.436508,313.072266 158.789307,308.640350 159.279114,304.223602 
	C161.004135,288.668488 162.082535,272.999725 164.721954,257.599579 
	C167.459869,241.624802 171.536362,225.864563 175.463882,210.119385 
	C176.401627,206.360001 175.173813,205.395325 172.155060,204.608231 
	C166.598846,203.159531 161.079178,201.570740 154.738571,199.926407 
M321.090759,488.506287 
	C321.090759,482.113007 321.090759,475.719696 321.090759,468.370758 
	C283.932648,469.682129 247.424850,471.980133 210.798004,479.196960 
	C217.216080,492.129547 222.715408,504.225586 229.121521,515.820679 
	C234.985184,526.433899 241.299850,536.885803 248.369888,546.723145 
	C257.917542,560.007751 269.028900,572.029907 282.279449,581.816589 
	C293.966644,590.448608 306.169586,598.186829 321.090759,602.176758 
	C321.090759,564.335571 321.090759,526.919678 321.090759,488.506287 
M321.088287,120.500023 
	C321.088287,101.884521 321.088287,83.269020 321.088287,64.246208 
	C319.274445,64.733482 317.978729,64.962341 316.771790,65.423500 
	C295.145172,73.686890 276.748657,86.750420 261.083130,103.627670 
	C243.413254,122.664261 229.998215,144.514175 219.688126,168.291611 
	C217.414139,173.535980 215.542633,178.954880 213.461823,184.355667 
	C239.466873,191.093781 312.050812,196.490555 321.088287,194.337540 
	C321.088287,170.115295 321.088287,145.807663 321.088287,120.500023 
M165.578735,545.983704 
	C167.541428,547.493164 169.477341,549.038940 171.470947,550.506348 
	C189.956314,564.113220 209.759109,575.411987 230.901306,584.354065 
	C233.790878,585.576233 236.668304,586.848938 239.628433,587.876099 
	C242.539932,588.886353 245.549545,589.613831 248.516113,590.465393 
	C218.636703,560.493958 199.174179,524.692505 183.735107,485.771362 
	C178.632202,487.182892 173.301788,488.316132 168.214737,490.131348 
	C155.290024,494.743134 142.472656,499.655975 129.616211,504.458679 
	C126.845352,505.493774 125.847473,507.198029 128.024536,509.669281 
	C131.087265,513.145935 134.088425,516.707275 137.435318,519.897217 
	C146.523621,528.559448 155.780014,537.045166 165.578735,545.983704 
M220.314896,108.732124 
	C228.136047,99.014305 235.957214,89.296486 243.778366,79.578667 
	C198.545090,96.052429 159.704269,121.542076 127.649391,159.696533 
	C147.537186,166.316513 166.369461,172.585129 185.436371,178.931854 
	C194.429718,153.693024 205.252472,130.543900 220.314896,108.732124 
z"/>
<path fill="#05396E" opacity="1.000000" stroke="none" 
	d="
M461.001526,694.591858 
	C461.001404,688.372253 461.001404,682.594971 461.001404,676.817688 
	C461.281586,676.820068 461.561798,676.822510 461.841980,676.824951 
	C461.841980,684.290710 461.841980,691.756470 461.841980,699.222229 
	C461.650879,699.233093 461.459778,699.244019 461.268677,699.254883 
	C461.179657,697.847961 461.090668,696.441101 461.001526,694.591858 
z"/>
<path fill="#000102" opacity="1.000000" stroke="none" 
	d="
M623.171692,279.997192 
	C615.965149,271.710632 608.035522,265.132690 597.784851,261.592712 
	C577.796326,254.689819 558.888123,257.886383 541.000427,268.000305 
	C521.654602,278.938660 509.643402,295.572021 505.661804,317.523102 
	C504.220673,325.468353 504.518005,333.733917 503.009766,341.660736 
	C500.645844,354.085083 494.647858,364.750458 485.917236,374.078735 
	C478.649933,381.843628 470.458862,388.097748 460.723267,392.176605 
	C457.825165,393.390808 454.024445,394.351410 451.276428,393.459351 
	C448.798431,392.654938 445.816803,389.289093 445.580261,386.812012 
	C445.327454,384.164368 447.341431,380.361298 449.577423,378.604431 
	C454.711945,374.570068 460.865784,371.849060 466.095490,367.916260 
	C476.880005,359.806183 483.235199,348.849548 485.075012,335.421173 
	C486.390869,325.817017 486.789032,316.014252 488.972290,306.619781 
	C491.885132,294.085846 498.814362,283.493073 507.002686,273.473846 
	C515.903381,262.582977 526.702454,254.412842 539.177673,248.626312 
	C561.102112,238.456772 583.644348,236.464813 606.453613,246.029587 
	C617.336060,250.592972 626.646912,257.434998 634.508545,266.198486 
	C637.380005,269.399384 639.394836,273.191010 637.785156,277.614227 
	C635.721497,283.284851 628.857605,284.438385 623.171692,279.997192 
z"/>
<path fill="#000102" opacity="1.000000" stroke="none" 
	d="
M462.473450,199.527802 
	C462.718597,188.689514 464.734711,178.747421 469.823334,169.590179 
	C474.310669,161.514984 480.084961,154.626434 486.727295,148.050598 
	C495.331177,139.532898 505.323151,133.953659 516.200195,129.512329 
	C524.806885,125.998024 533.945068,125.741226 543.093994,126.057419 
	C546.883301,126.188377 550.862183,130.364288 551.081360,134.267960 
	C551.321655,138.548019 548.353088,142.526978 544.052246,143.162766 
	C538.507874,143.982346 532.751648,143.855316 527.377075,145.252747 
	C502.982330,151.595566 487.377045,167.018799 481.594757,191.690948 
	C480.331207,197.082291 480.525848,202.839432 480.279297,208.438248 
	C480.036652,213.948517 477.477081,217.604065 473.057770,218.193878 
	C467.781464,218.898056 464.112366,216.312546 462.928406,210.322586 
	C462.266632,206.974350 462.561096,203.437088 462.473450,199.527802 
z"/>
<path fill="#000102" opacity="1.000000" stroke="none" 
	d="
M620.804993,405.525513 
	C621.175720,409.031158 621.884399,412.188934 621.534485,415.224731 
	C620.944031,420.348053 616.526245,424.253540 612.383728,424.051666 
	C608.885925,423.881226 604.771851,418.998779 604.092529,414.602600 
	C602.360962,403.395935 598.859131,392.932434 590.159424,385.046844 
	C581.514038,377.210541 571.302551,373.991089 559.628479,374.972931 
	C557.133850,375.182709 554.117249,374.776154 552.077454,373.487762 
	C549.041992,371.570526 546.187683,368.780151 547.419678,364.424713 
	C548.539307,360.466553 553.717590,357.145447 558.887756,357.167847 
	C569.124756,357.212189 579.082947,358.260437 588.468811,363.153351 
	C605.811768,372.194366 616.400696,386.172058 620.804993,405.525513 
z"/>
<path fill="#000001" opacity="1.000000" stroke="none" 
	d="
M189.078308,286.318970 
	C192.408585,267.706085 195.583298,249.523331 199.123215,231.411957 
	C200.406479,224.846436 202.562988,218.451599 204.228989,212.317810 
	C242.994934,219.483627 281.631958,221.954010 320.682373,224.070038 
	C320.682373,255.313538 320.682373,286.268890 320.682373,317.655518 
	C276.538818,317.655518 232.188202,317.655518 186.798782,317.655518 
	C187.553177,307.386353 188.310181,297.081818 189.078308,286.318970 
z"/>
<path fill="#000000" opacity="1.000000" stroke="none" 
	d="
M304.284698,346.771973 
	C308.689148,346.749146 312.694763,347.222626 316.537292,346.633118 
	C320.826721,345.975067 321.149506,347.881073 321.136597,351.270020 
	C321.045258,375.244293 321.088593,399.219055 321.088409,423.193665 
	C321.088379,427.189423 321.010712,431.187012 321.108521,435.180328 
	C321.181976,438.178589 319.817902,439.218994 316.896393,439.330444 
	C303.811737,439.829346 290.669434,439.881409 277.667328,441.238251 
	C257.152863,443.379059 236.734909,446.443054 216.273926,449.099335 
	C212.206482,449.627350 208.129181,450.079376 203.488098,450.634430 
	C193.197739,417.206421 188.867798,382.510803 186.841415,346.799347 
	C226.327560,346.799347 265.070740,346.799347 304.284698,346.771973 
z"/>
<path fill="#000001" opacity="1.000000" stroke="none" 
	d="
M155.141418,199.983368 
	C161.079178,201.570740 166.598846,203.159531 172.155060,204.608231 
	C175.173813,205.395325 176.401627,206.360001 175.463882,210.119385 
	C171.536362,225.864563 167.459869,241.624802 164.721954,257.599579 
	C162.082535,272.999725 161.004135,288.668488 159.279114,304.223602 
	C158.789307,308.640350 158.436508,313.072266 157.994492,317.778076 
	C126.356857,317.778076 94.972458,317.778076 62.863247,317.778076 
	C63.280018,314.035919 63.550861,310.637756 64.052513,307.274017 
	C65.827499,295.372345 67.006172,283.329651 69.655304,271.621979 
	C74.234116,251.386215 81.569008,232.002365 91.204292,213.623474 
	C96.270851,203.959183 102.315186,194.799500 108.139763,185.551620 
	C108.806671,184.492737 111.213722,183.492798 112.293457,183.887894 
	C126.496384,189.084961 140.605759,194.537720 155.141418,199.983368 
z"/>
<path fill="#000001" opacity="1.000000" stroke="none" 
	d="
M157.983124,346.080231 
	C159.872147,383.704468 165.007874,420.833832 175.154877,457.398071 
	C165.964722,460.272858 156.817734,462.774963 147.933395,466.000519 
	C135.732117,470.430328 123.692688,475.317108 111.669739,480.218597 
	C108.841667,481.371552 107.117416,481.124451 105.430901,478.506409 
	C93.466232,459.933380 83.354904,440.428101 77.050430,419.212921 
	C72.712669,404.615936 68.898880,389.828491 65.678726,374.947083 
	C63.742481,365.998962 63.395580,356.706970 62.254704,346.883026 
	C73.901413,346.883026 84.342529,346.899231 94.783585,346.879364 
	C111.932793,346.846710 129.082031,346.806549 146.231003,346.718994 
	C147.868134,346.710632 149.503433,346.345154 151.780853,346.427460 
	C154.275803,346.499725 156.129456,346.289978 157.983124,346.080231 
z"/>
<path fill="#000101" opacity="1.000000" stroke="none" 
	d="
M321.090759,489.005066 
	C321.090759,526.919678 321.090759,564.335571 321.090759,602.176758 
	C306.169586,598.186829 293.966644,590.448608 282.279449,581.816589 
	C269.028900,572.029907 257.917542,560.007751 248.369888,546.723145 
	C241.299850,536.885803 234.985184,526.433899 229.121521,515.820679 
	C222.715408,504.225586 217.216080,492.129547 210.798004,479.196960 
	C247.424850,471.980133 283.932648,469.682129 321.090759,468.370758 
	C321.090759,475.719696 321.090759,482.113007 321.090759,489.005066 
z"/>
<path fill="#000000" opacity="1.000000" stroke="none" 
	d="
M321.088287,121.000031 
	C321.088287,145.807663 321.088287,170.115295 321.088287,194.337540 
	C312.050812,196.490555 239.466873,191.093781 213.461823,184.355667 
	C215.542633,178.954880 217.414139,173.535980 219.688126,168.291611 
	C229.998215,144.514175 243.413254,122.664261 261.083130,103.627670 
	C276.748657,86.750420 295.145172,73.686890 316.771790,65.423500 
	C317.978729,64.962341 319.274445,64.733482 321.088287,64.246208 
	C321.088287,83.269020 321.088287,101.884521 321.088287,121.000031 
z"/>
<path fill="#000102" opacity="1.000000" stroke="none" 
	d="
M165.274261,545.792297 
	C155.780014,537.045166 146.523621,528.559448 137.435318,519.897217 
	C134.088425,516.707275 131.087265,513.145935 128.024536,509.669281 
	C125.847473,507.198029 126.845352,505.493774 129.616211,504.458679 
	C142.472656,499.655975 155.290024,494.743134 168.214737,490.131348 
	C173.301788,488.316132 178.632202,487.182892 183.735107,485.771362 
	C199.174179,524.692505 218.636703,560.493958 248.516113,590.465393 
	C245.549545,589.613831 242.539932,588.886353 239.628433,587.876099 
	C236.668304,586.848938 233.790878,585.576233 230.901306,584.354065 
	C209.759109,575.411987 189.956314,564.113220 171.470947,550.506348 
	C169.477341,549.038940 167.541428,547.493164 165.274261,545.792297 
z"/>
<path fill="#000001" opacity="1.000000" stroke="none" 
	d="
M220.080841,109.007248 
	C205.252472,130.543900 194.429718,153.693024 185.436371,178.931854 
	C166.369461,172.585129 147.537186,166.316513 127.649391,159.696533 
	C159.704269,121.542076 198.545090,96.052429 243.778366,79.578667 
	C235.957214,89.296486 228.136047,99.014305 220.080841,109.007248 
z"/>
<path fill="#0A72C1" opacity="1.000000" stroke="none" 
	d="
M157.771606,345.760620 
	C156.129456,346.289978 154.275803,346.499725 152.192719,346.456421 
	C149.546600,345.798950 147.131119,345.051483 144.713074,345.043121 
	C119.747856,344.956818 94.782234,344.989960 69.816719,344.989838 
	C68.022469,344.989838 66.228226,344.989807 64.433975,344.989807 
	C64.426765,344.739288 64.419563,344.488739 64.412354,344.238220 
	C65.806206,344.162323 67.200027,344.020905 68.593918,344.020233 
	C96.055977,344.007385 123.518150,343.978241 150.979889,344.072784 
	C153.174835,344.080353 155.366760,344.964325 157.771606,345.760620 
z"/>
</svg>